<mxfile host="app.diagrams.net" modified="2021-05-25T11:52:41.008Z" agent="5.0 (Windows NT 10.0; Win64; x64) AppleWebKit/537.36 (KHTML, like Gecko) Chrome/90.0.4430.212 Safari/537.36" etag="rhK_DGDP_QuJ0ex269fO" version="14.7.0" type="github">
  <diagram id="Rd4Ij3cNA8xpCBLCCMMN" name="Page-1">
    <mxGraphModel dx="1038" dy="1717" grid="1" gridSize="10" guides="1" tooltips="1" connect="1" arrows="1" fold="1" page="1" pageScale="1" pageWidth="827" pageHeight="1169" math="0" shadow="0">
      <root>
        <mxCell id="0" />
        <mxCell id="1" parent="0" />
        <mxCell id="-ip3mRISZE-mA6Em4dH5-1" value="Administrador" style="shape=umlActor;verticalLabelPosition=bottom;verticalAlign=top;html=1;" parent="1" vertex="1">
          <mxGeometry x="90" y="40" width="30" height="60" as="geometry" />
        </mxCell>
        <mxCell id="-ip3mRISZE-mA6Em4dH5-3" value="Maestro&lt;br&gt;" style="shape=umlActor;verticalLabelPosition=bottom;verticalAlign=top;html=1;" parent="1" vertex="1">
          <mxGeometry x="680" y="150" width="30" height="60" as="geometry" />
        </mxCell>
        <mxCell id="-ip3mRISZE-mA6Em4dH5-10" value="registrarse" style="ellipse;whiteSpace=wrap;html=1;" parent="1" vertex="1">
          <mxGeometry x="252.5" y="-110" width="80" height="40" as="geometry" />
        </mxCell>
        <mxCell id="-ip3mRISZE-mA6Em4dH5-11" value="iniciar sesión" style="ellipse;whiteSpace=wrap;html=1;" parent="1" vertex="1">
          <mxGeometry x="255" y="-60" width="80" height="40" as="geometry" />
        </mxCell>
        <mxCell id="-ip3mRISZE-mA6Em4dH5-12" value="añadir/eliminar alumnos" style="ellipse;whiteSpace=wrap;html=1;" parent="1" vertex="1">
          <mxGeometry x="250" y="-10" width="90" height="40" as="geometry" />
        </mxCell>
        <mxCell id="-ip3mRISZE-mA6Em4dH5-13" value="visualizar maestro/padre" style="ellipse;whiteSpace=wrap;html=1;" parent="1" vertex="1">
          <mxGeometry x="250" y="50" width="90" height="40" as="geometry" />
        </mxCell>
        <mxCell id="-ip3mRISZE-mA6Em4dH5-14" value="visualizar alumnos" style="ellipse;whiteSpace=wrap;html=1;" parent="1" vertex="1">
          <mxGeometry x="400" y="20" width="85" height="40" as="geometry" />
        </mxCell>
        <mxCell id="-ip3mRISZE-mA6Em4dH5-17" value="visualizar alimentos" style="ellipse;whiteSpace=wrap;html=1;" parent="1" vertex="1">
          <mxGeometry x="252" y="110" width="86" height="40" as="geometry" />
        </mxCell>
        <mxCell id="-ip3mRISZE-mA6Em4dH5-18" value="enviar mensajes" style="ellipse;whiteSpace=wrap;html=1;" parent="1" vertex="1">
          <mxGeometry x="252" y="160" width="80" height="50" as="geometry" />
        </mxCell>
        <mxCell id="-ip3mRISZE-mA6Em4dH5-19" value="enviar notificaciones" style="ellipse;whiteSpace=wrap;html=1;" parent="1" vertex="1">
          <mxGeometry x="245" y="220" width="90" height="50" as="geometry" />
        </mxCell>
        <mxCell id="-ip3mRISZE-mA6Em4dH5-24" value="añadir/eliminar maestro/padre" style="ellipse;whiteSpace=wrap;html=1;" parent="1" vertex="1">
          <mxGeometry x="422" y="90" width="88" height="50" as="geometry" />
        </mxCell>
        <mxCell id="-ip3mRISZE-mA6Em4dH5-28" value="comprobar datos" style="ellipse;whiteSpace=wrap;html=1;" parent="1" vertex="1">
          <mxGeometry x="386" y="-120" width="140" height="70" as="geometry" />
        </mxCell>
        <mxCell id="-ip3mRISZE-mA6Em4dH5-30" value="Extends" style="endArrow=block;endSize=16;endFill=0;html=1;" parent="1" source="-ip3mRISZE-mA6Em4dH5-28" edge="1">
          <mxGeometry width="160" relative="1" as="geometry">
            <mxPoint x="190" y="-160" as="sourcePoint" />
            <mxPoint x="330" y="-100" as="targetPoint" />
          </mxGeometry>
        </mxCell>
        <mxCell id="-ip3mRISZE-mA6Em4dH5-31" value="Extends" style="endArrow=block;endSize=16;endFill=0;html=1;exitX=0.366;exitY=0.983;exitDx=0;exitDy=0;exitPerimeter=0;" parent="1" source="-ip3mRISZE-mA6Em4dH5-28" edge="1">
          <mxGeometry width="160" relative="1" as="geometry">
            <mxPoint x="420.97655395037464" y="-138.20032973236584" as="sourcePoint" />
            <mxPoint x="330" y="-40" as="targetPoint" />
          </mxGeometry>
        </mxCell>
        <mxCell id="-ip3mRISZE-mA6Em4dH5-35" value="Extends" style="endArrow=block;endSize=16;endFill=0;html=1;entryX=0.933;entryY=0.82;entryDx=0;entryDy=0;exitX=0;exitY=0.5;exitDx=0;exitDy=0;entryPerimeter=0;" parent="1" source="-ip3mRISZE-mA6Em4dH5-14" target="-ip3mRISZE-mA6Em4dH5-12" edge="1">
          <mxGeometry width="160" relative="1" as="geometry">
            <mxPoint x="550" y="60" as="sourcePoint" />
            <mxPoint x="475" y="50" as="targetPoint" />
          </mxGeometry>
        </mxCell>
        <mxCell id="-ip3mRISZE-mA6Em4dH5-41" value="subir archivos multimedia" style="ellipse;whiteSpace=wrap;html=1;" parent="1" vertex="1">
          <mxGeometry x="235" y="280" width="95" height="60" as="geometry" />
        </mxCell>
        <mxCell id="-ip3mRISZE-mA6Em4dH5-44" value="visualizar/eliminar archivos" style="ellipse;whiteSpace=wrap;html=1;" parent="1" vertex="1">
          <mxGeometry x="401" y="290" width="109" height="60" as="geometry" />
        </mxCell>
        <mxCell id="Giucm0nm3MPma1HTVCax-2" value="&amp;lt;&amp;lt;include&amp;gt;&amp;gt;" style="html=1;verticalAlign=bottom;labelBackgroundColor=none;endArrow=open;endFill=0;dashed=1;entryX=0.023;entryY=0.393;entryDx=0;entryDy=0;entryPerimeter=0;" edge="1" parent="1" source="-ip3mRISZE-mA6Em4dH5-1" target="-ip3mRISZE-mA6Em4dH5-41">
          <mxGeometry width="160" relative="1" as="geometry">
            <mxPoint x="92.5" y="190" as="sourcePoint" />
            <mxPoint x="252.5" y="190" as="targetPoint" />
          </mxGeometry>
        </mxCell>
        <mxCell id="Giucm0nm3MPma1HTVCax-3" value="&amp;lt;&amp;lt;include&amp;gt;&amp;gt;" style="html=1;verticalAlign=bottom;labelBackgroundColor=none;endArrow=open;endFill=0;dashed=1;exitX=1;exitY=1;exitDx=0;exitDy=0;exitPerimeter=0;" edge="1" parent="1" source="-ip3mRISZE-mA6Em4dH5-1">
          <mxGeometry width="160" relative="1" as="geometry">
            <mxPoint x="130" y="107.69230769230762" as="sourcePoint" />
            <mxPoint x="250" y="240" as="targetPoint" />
          </mxGeometry>
        </mxCell>
        <mxCell id="Giucm0nm3MPma1HTVCax-4" value="&amp;lt;&amp;lt;include&amp;gt;&amp;gt;" style="html=1;verticalAlign=bottom;labelBackgroundColor=none;endArrow=open;endFill=0;dashed=1;exitX=0.72;exitY=0.727;exitDx=0;exitDy=0;exitPerimeter=0;" edge="1" parent="1" source="-ip3mRISZE-mA6Em4dH5-1">
          <mxGeometry width="160" relative="1" as="geometry">
            <mxPoint x="140" y="117.69230769230762" as="sourcePoint" />
            <mxPoint x="260" y="170" as="targetPoint" />
          </mxGeometry>
        </mxCell>
        <mxCell id="Giucm0nm3MPma1HTVCax-5" value="&amp;lt;&amp;lt;include&amp;gt;&amp;gt;" style="html=1;verticalAlign=bottom;labelBackgroundColor=none;endArrow=open;endFill=0;dashed=1;" edge="1" parent="1" source="-ip3mRISZE-mA6Em4dH5-1" target="-ip3mRISZE-mA6Em4dH5-17">
          <mxGeometry width="160" relative="1" as="geometry">
            <mxPoint x="150" y="127.69230769230762" as="sourcePoint" />
            <mxPoint x="265" y="340" as="targetPoint" />
          </mxGeometry>
        </mxCell>
        <mxCell id="Giucm0nm3MPma1HTVCax-6" value="&amp;lt;&amp;lt;include&amp;gt;&amp;gt;" style="html=1;verticalAlign=bottom;labelBackgroundColor=none;endArrow=open;endFill=0;dashed=1;" edge="1" parent="1" source="-ip3mRISZE-mA6Em4dH5-1" target="-ip3mRISZE-mA6Em4dH5-13">
          <mxGeometry width="160" relative="1" as="geometry">
            <mxPoint x="160" y="137.69230769230762" as="sourcePoint" />
            <mxPoint x="275" y="350" as="targetPoint" />
          </mxGeometry>
        </mxCell>
        <mxCell id="Giucm0nm3MPma1HTVCax-7" value="&amp;lt;&amp;lt;include&amp;gt;&amp;gt;" style="html=1;verticalAlign=bottom;labelBackgroundColor=none;endArrow=open;endFill=0;dashed=1;entryX=0.036;entryY=0.72;entryDx=0;entryDy=0;exitX=1;exitY=0.3333333333333333;exitDx=0;exitDy=0;exitPerimeter=0;entryPerimeter=0;" edge="1" parent="1" source="-ip3mRISZE-mA6Em4dH5-1" target="-ip3mRISZE-mA6Em4dH5-12">
          <mxGeometry width="160" relative="1" as="geometry">
            <mxPoint x="170" y="147.69230769230762" as="sourcePoint" />
            <mxPoint x="285" y="360" as="targetPoint" />
          </mxGeometry>
        </mxCell>
        <mxCell id="Giucm0nm3MPma1HTVCax-8" value="&amp;lt;&amp;lt;include&amp;gt;&amp;gt;" style="html=1;verticalAlign=bottom;labelBackgroundColor=none;endArrow=open;endFill=0;dashed=1;entryX=0;entryY=1;entryDx=0;entryDy=0;exitX=0.75;exitY=0.1;exitDx=0;exitDy=0;exitPerimeter=0;" edge="1" parent="1" source="-ip3mRISZE-mA6Em4dH5-1" target="-ip3mRISZE-mA6Em4dH5-10">
          <mxGeometry width="160" relative="1" as="geometry">
            <mxPoint x="180" y="157.69230769230762" as="sourcePoint" />
            <mxPoint x="240" y="-90" as="targetPoint" />
          </mxGeometry>
        </mxCell>
        <mxCell id="Giucm0nm3MPma1HTVCax-10" value="Extends" style="endArrow=block;endSize=16;endFill=0;html=1;entryX=1;entryY=0.5;entryDx=0;entryDy=0;" edge="1" parent="1" source="Giucm0nm3MPma1HTVCax-11" target="-ip3mRISZE-mA6Em4dH5-18">
          <mxGeometry width="160" relative="1" as="geometry">
            <mxPoint x="552" y="125" as="sourcePoint" />
            <mxPoint x="350" y="80" as="targetPoint" />
          </mxGeometry>
        </mxCell>
        <mxCell id="Giucm0nm3MPma1HTVCax-11" value="recibir mensajes" style="ellipse;whiteSpace=wrap;html=1;" vertex="1" parent="1">
          <mxGeometry x="416" y="190" width="80" height="50" as="geometry" />
        </mxCell>
        <mxCell id="Giucm0nm3MPma1HTVCax-12" value="visualizar sus alumnos" style="ellipse;whiteSpace=wrap;html=1;" vertex="1" parent="1">
          <mxGeometry x="815" y="20" width="105" height="60" as="geometry" />
        </mxCell>
        <mxCell id="Giucm0nm3MPma1HTVCax-13" value="iniciar sesión" style="ellipse;whiteSpace=wrap;html=1;" vertex="1" parent="1">
          <mxGeometry x="815" y="-50" width="105" height="60" as="geometry" />
        </mxCell>
        <mxCell id="Giucm0nm3MPma1HTVCax-14" value="registrarse" style="ellipse;whiteSpace=wrap;html=1;" vertex="1" parent="1">
          <mxGeometry x="817" y="-120" width="105" height="60" as="geometry" />
        </mxCell>
        <mxCell id="Giucm0nm3MPma1HTVCax-15" value="visualizar alimentos" style="ellipse;whiteSpace=wrap;html=1;" vertex="1" parent="1">
          <mxGeometry x="815" y="90" width="105" height="60" as="geometry" />
        </mxCell>
        <mxCell id="Giucm0nm3MPma1HTVCax-16" value="visualizar usuarios" style="ellipse;whiteSpace=wrap;html=1;" vertex="1" parent="1">
          <mxGeometry x="817" y="160" width="105" height="60" as="geometry" />
        </mxCell>
        <mxCell id="Giucm0nm3MPma1HTVCax-17" value="recibir notificaciones" style="ellipse;whiteSpace=wrap;html=1;" vertex="1" parent="1">
          <mxGeometry x="815" y="230" width="105" height="60" as="geometry" />
        </mxCell>
        <mxCell id="Giucm0nm3MPma1HTVCax-18" value="enviar mensaje" style="ellipse;whiteSpace=wrap;html=1;" vertex="1" parent="1">
          <mxGeometry x="815" y="300" width="105" height="60" as="geometry" />
        </mxCell>
        <mxCell id="Giucm0nm3MPma1HTVCax-19" value="visualizar datos" style="ellipse;whiteSpace=wrap;html=1;" vertex="1" parent="1">
          <mxGeometry x="1004" y="-110" width="105" height="60" as="geometry" />
        </mxCell>
        <mxCell id="Giucm0nm3MPma1HTVCax-20" value="añadir/eliminar alumnos" style="ellipse;whiteSpace=wrap;html=1;" vertex="1" parent="1">
          <mxGeometry x="993" y="10" width="105" height="60" as="geometry" />
        </mxCell>
        <mxCell id="Giucm0nm3MPma1HTVCax-22" value="visualizar archivos multimedia" style="ellipse;whiteSpace=wrap;html=1;" vertex="1" parent="1">
          <mxGeometry x="810" y="379" width="105" height="60" as="geometry" />
        </mxCell>
        <mxCell id="Giucm0nm3MPma1HTVCax-23" value="recibir mensajes" style="ellipse;whiteSpace=wrap;html=1;" vertex="1" parent="1">
          <mxGeometry x="1011" y="310" width="105" height="60" as="geometry" />
        </mxCell>
        <mxCell id="Giucm0nm3MPma1HTVCax-26" value="Extends" style="endArrow=block;endSize=16;endFill=0;html=1;" edge="1" parent="1" source="Giucm0nm3MPma1HTVCax-19" target="Giucm0nm3MPma1HTVCax-14">
          <mxGeometry width="160" relative="1" as="geometry">
            <mxPoint x="1079.8241815490517" y="-107.03963798455516" as="sourcePoint" />
            <mxPoint x="1012.1700000000001" y="-110" as="targetPoint" />
          </mxGeometry>
        </mxCell>
        <mxCell id="Giucm0nm3MPma1HTVCax-27" value="&amp;lt;&amp;lt;include&amp;gt;&amp;gt;" style="html=1;verticalAlign=bottom;labelBackgroundColor=none;endArrow=open;endFill=0;dashed=1;entryX=0.074;entryY=0.787;entryDx=0;entryDy=0;exitX=0.75;exitY=0.1;exitDx=0;exitDy=0;exitPerimeter=0;entryPerimeter=0;" edge="1" parent="1" source="-ip3mRISZE-mA6Em4dH5-3" target="Giucm0nm3MPma1HTVCax-14">
          <mxGeometry width="160" relative="1" as="geometry">
            <mxPoint x="710" y="-311.9976923076924" as="sourcePoint" />
            <mxPoint x="825" y="-99.69000000000005" as="targetPoint" />
          </mxGeometry>
        </mxCell>
        <mxCell id="Giucm0nm3MPma1HTVCax-28" value="&amp;lt;&amp;lt;include&amp;gt;&amp;gt;" style="html=1;verticalAlign=bottom;labelBackgroundColor=none;endArrow=open;endFill=0;dashed=1;entryX=0;entryY=1;entryDx=0;entryDy=0;exitX=0.8;exitY=0.233;exitDx=0;exitDy=0;exitPerimeter=0;" edge="1" parent="1" source="-ip3mRISZE-mA6Em4dH5-3" target="Giucm0nm3MPma1HTVCax-15">
          <mxGeometry width="160" relative="1" as="geometry">
            <mxPoint x="712.5" y="166" as="sourcePoint" />
            <mxPoint x="834.77" y="-62.7800000000002" as="targetPoint" />
          </mxGeometry>
        </mxCell>
        <mxCell id="Giucm0nm3MPma1HTVCax-29" value="&amp;lt;&amp;lt;include&amp;gt;&amp;gt;" style="html=1;verticalAlign=bottom;labelBackgroundColor=none;endArrow=open;endFill=0;dashed=1;entryX=0;entryY=0.5;entryDx=0;entryDy=0;" edge="1" parent="1" source="-ip3mRISZE-mA6Em4dH5-3" target="Giucm0nm3MPma1HTVCax-16">
          <mxGeometry width="160" relative="1" as="geometry">
            <mxPoint x="722.5" y="176" as="sourcePoint" />
            <mxPoint x="830" y="180" as="targetPoint" />
          </mxGeometry>
        </mxCell>
        <mxCell id="Giucm0nm3MPma1HTVCax-30" value="&amp;lt;&amp;lt;include&amp;gt;&amp;gt;" style="html=1;verticalAlign=bottom;labelBackgroundColor=none;endArrow=open;endFill=0;dashed=1;entryX=0;entryY=0.5;entryDx=0;entryDy=0;" edge="1" parent="1" source="-ip3mRISZE-mA6Em4dH5-3" target="Giucm0nm3MPma1HTVCax-17">
          <mxGeometry width="160" relative="1" as="geometry">
            <mxPoint x="732.5" y="186" as="sourcePoint" />
            <mxPoint x="854.77" y="-42.7800000000002" as="targetPoint" />
          </mxGeometry>
        </mxCell>
        <mxCell id="Giucm0nm3MPma1HTVCax-31" value="&amp;lt;&amp;lt;include&amp;gt;&amp;gt;" style="html=1;verticalAlign=bottom;labelBackgroundColor=none;endArrow=open;endFill=0;dashed=1;entryX=0;entryY=0.5;entryDx=0;entryDy=0;exitX=1;exitY=1;exitDx=0;exitDy=0;exitPerimeter=0;" edge="1" parent="1" source="-ip3mRISZE-mA6Em4dH5-3" target="Giucm0nm3MPma1HTVCax-18">
          <mxGeometry width="160" relative="1" as="geometry">
            <mxPoint x="742.5" y="196" as="sourcePoint" />
            <mxPoint x="864.77" y="-32.7800000000002" as="targetPoint" />
          </mxGeometry>
        </mxCell>
        <mxCell id="Giucm0nm3MPma1HTVCax-32" value="&amp;lt;&amp;lt;include&amp;gt;&amp;gt;" style="html=1;verticalAlign=bottom;labelBackgroundColor=none;endArrow=open;endFill=0;dashed=1;entryX=0;entryY=1;entryDx=0;entryDy=0;exitX=0.75;exitY=0.1;exitDx=0;exitDy=0;exitPerimeter=0;" edge="1" parent="1" source="-ip3mRISZE-mA6Em4dH5-3" target="Giucm0nm3MPma1HTVCax-13">
          <mxGeometry width="160" relative="1" as="geometry">
            <mxPoint x="752.5" y="206" as="sourcePoint" />
            <mxPoint x="874.77" y="-22.7800000000002" as="targetPoint" />
          </mxGeometry>
        </mxCell>
        <mxCell id="Giucm0nm3MPma1HTVCax-33" value="&amp;lt;&amp;lt;include&amp;gt;&amp;gt;" style="html=1;verticalAlign=bottom;labelBackgroundColor=none;endArrow=open;endFill=0;dashed=1;exitX=0.75;exitY=0.1;exitDx=0;exitDy=0;exitPerimeter=0;" edge="1" parent="1" source="-ip3mRISZE-mA6Em4dH5-1" target="-ip3mRISZE-mA6Em4dH5-11">
          <mxGeometry width="160" relative="1" as="geometry">
            <mxPoint x="130" y="66.25846841398106" as="sourcePoint" />
            <mxPoint x="274.2157287525381" y="-65.85786437626894" as="targetPoint" />
          </mxGeometry>
        </mxCell>
        <mxCell id="Giucm0nm3MPma1HTVCax-34" value="Extends" style="endArrow=block;endSize=16;endFill=0;html=1;exitX=0;exitY=1;exitDx=0;exitDy=0;" edge="1" parent="1" source="Giucm0nm3MPma1HTVCax-19" target="Giucm0nm3MPma1HTVCax-13">
          <mxGeometry width="160" relative="1" as="geometry">
            <mxPoint x="1024.5699867139822" y="-18.05320016481346" as="sourcePoint" />
            <mxPoint x="921.5269537748422" y="-62.020554534826715" as="targetPoint" />
          </mxGeometry>
        </mxCell>
        <mxCell id="Giucm0nm3MPma1HTVCax-35" value="&amp;lt;&amp;lt;include&amp;gt;&amp;gt;" style="html=1;verticalAlign=bottom;labelBackgroundColor=none;endArrow=open;endFill=0;dashed=1;entryX=0;entryY=1;entryDx=0;entryDy=0;" edge="1" parent="1" target="Giucm0nm3MPma1HTVCax-12">
          <mxGeometry width="160" relative="1" as="geometry">
            <mxPoint x="710" y="160" as="sourcePoint" />
            <mxPoint x="840.5549393983158" y="151.31445803943325" as="targetPoint" />
          </mxGeometry>
        </mxCell>
        <mxCell id="Giucm0nm3MPma1HTVCax-37" value="Padre" style="shape=umlActor;verticalLabelPosition=bottom;verticalAlign=top;html=1;" vertex="1" parent="1">
          <mxGeometry x="75.5" y="690" width="30" height="60" as="geometry" />
        </mxCell>
        <mxCell id="Giucm0nm3MPma1HTVCax-38" value="ver su hijo" style="ellipse;whiteSpace=wrap;html=1;" vertex="1" parent="1">
          <mxGeometry x="210.5" y="560" width="105" height="60" as="geometry" />
        </mxCell>
        <mxCell id="Giucm0nm3MPma1HTVCax-39" value="iniciar sesión" style="ellipse;whiteSpace=wrap;html=1;" vertex="1" parent="1">
          <mxGeometry x="210.5" y="490" width="105" height="60" as="geometry" />
        </mxCell>
        <mxCell id="Giucm0nm3MPma1HTVCax-40" value="registrarse" style="ellipse;whiteSpace=wrap;html=1;" vertex="1" parent="1">
          <mxGeometry x="212.5" y="420" width="105" height="60" as="geometry" />
        </mxCell>
        <mxCell id="Giucm0nm3MPma1HTVCax-41" value="añadir alimentos" style="ellipse;whiteSpace=wrap;html=1;" vertex="1" parent="1">
          <mxGeometry x="210.5" y="630" width="105" height="60" as="geometry" />
        </mxCell>
        <mxCell id="Giucm0nm3MPma1HTVCax-42" value="visualizar archivos multimedia" style="ellipse;whiteSpace=wrap;html=1;" vertex="1" parent="1">
          <mxGeometry x="212.5" y="700" width="105" height="60" as="geometry" />
        </mxCell>
        <mxCell id="Giucm0nm3MPma1HTVCax-43" value="recibir notificaciones" style="ellipse;whiteSpace=wrap;html=1;" vertex="1" parent="1">
          <mxGeometry x="210.5" y="770" width="105" height="60" as="geometry" />
        </mxCell>
        <mxCell id="Giucm0nm3MPma1HTVCax-44" value="enviar mensaje" style="ellipse;whiteSpace=wrap;html=1;" vertex="1" parent="1">
          <mxGeometry x="210.5" y="840" width="105" height="60" as="geometry" />
        </mxCell>
        <mxCell id="Giucm0nm3MPma1HTVCax-45" value="visualizar datos" style="ellipse;whiteSpace=wrap;html=1;" vertex="1" parent="1">
          <mxGeometry x="399.5" y="500" width="105" height="60" as="geometry" />
        </mxCell>
        <mxCell id="Giucm0nm3MPma1HTVCax-47" value="visualizar alimentos" style="ellipse;whiteSpace=wrap;html=1;" vertex="1" parent="1">
          <mxGeometry x="385.5" y="650" width="105" height="60" as="geometry" />
        </mxCell>
        <mxCell id="Giucm0nm3MPma1HTVCax-49" value="recibir mensaje" style="ellipse;whiteSpace=wrap;html=1;" vertex="1" parent="1">
          <mxGeometry x="399.5" y="810" width="105" height="60" as="geometry" />
        </mxCell>
        <mxCell id="Giucm0nm3MPma1HTVCax-52" value="Extends" style="endArrow=block;endSize=16;endFill=0;html=1;" edge="1" parent="1" source="Giucm0nm3MPma1HTVCax-45" target="Giucm0nm3MPma1HTVCax-40">
          <mxGeometry width="160" relative="1" as="geometry">
            <mxPoint x="475.3241815490517" y="432.96036201544484" as="sourcePoint" />
            <mxPoint x="407.6700000000001" y="430" as="targetPoint" />
          </mxGeometry>
        </mxCell>
        <mxCell id="Giucm0nm3MPma1HTVCax-53" value="&amp;lt;&amp;lt;include&amp;gt;&amp;gt;" style="html=1;verticalAlign=bottom;labelBackgroundColor=none;endArrow=open;endFill=0;dashed=1;entryX=0.074;entryY=0.787;entryDx=0;entryDy=0;exitX=0.75;exitY=0.1;exitDx=0;exitDy=0;exitPerimeter=0;entryPerimeter=0;" edge="1" parent="1" source="Giucm0nm3MPma1HTVCax-37" target="Giucm0nm3MPma1HTVCax-40">
          <mxGeometry width="160" relative="1" as="geometry">
            <mxPoint x="105.5" y="228.00230769230757" as="sourcePoint" />
            <mxPoint x="220.5" y="440.30999999999995" as="targetPoint" />
          </mxGeometry>
        </mxCell>
        <mxCell id="Giucm0nm3MPma1HTVCax-54" value="&amp;lt;&amp;lt;include&amp;gt;&amp;gt;" style="html=1;verticalAlign=bottom;labelBackgroundColor=none;endArrow=open;endFill=0;dashed=1;entryX=0;entryY=1;entryDx=0;entryDy=0;exitX=0.8;exitY=0.233;exitDx=0;exitDy=0;exitPerimeter=0;" edge="1" parent="1" source="Giucm0nm3MPma1HTVCax-37" target="Giucm0nm3MPma1HTVCax-41">
          <mxGeometry width="160" relative="1" as="geometry">
            <mxPoint x="108" y="706" as="sourcePoint" />
            <mxPoint x="230.26999999999998" y="477.2199999999998" as="targetPoint" />
          </mxGeometry>
        </mxCell>
        <mxCell id="Giucm0nm3MPma1HTVCax-55" value="&amp;lt;&amp;lt;include&amp;gt;&amp;gt;" style="html=1;verticalAlign=bottom;labelBackgroundColor=none;endArrow=open;endFill=0;dashed=1;entryX=0;entryY=0.5;entryDx=0;entryDy=0;" edge="1" parent="1" source="Giucm0nm3MPma1HTVCax-37" target="Giucm0nm3MPma1HTVCax-42">
          <mxGeometry width="160" relative="1" as="geometry">
            <mxPoint x="118" y="716" as="sourcePoint" />
            <mxPoint x="225.5" y="720" as="targetPoint" />
          </mxGeometry>
        </mxCell>
        <mxCell id="Giucm0nm3MPma1HTVCax-56" value="&amp;lt;&amp;lt;include&amp;gt;&amp;gt;" style="html=1;verticalAlign=bottom;labelBackgroundColor=none;endArrow=open;endFill=0;dashed=1;entryX=0;entryY=0.5;entryDx=0;entryDy=0;" edge="1" parent="1" source="Giucm0nm3MPma1HTVCax-37" target="Giucm0nm3MPma1HTVCax-43">
          <mxGeometry width="160" relative="1" as="geometry">
            <mxPoint x="128" y="726" as="sourcePoint" />
            <mxPoint x="250.26999999999998" y="497.2199999999998" as="targetPoint" />
          </mxGeometry>
        </mxCell>
        <mxCell id="Giucm0nm3MPma1HTVCax-57" value="&amp;lt;&amp;lt;include&amp;gt;&amp;gt;" style="html=1;verticalAlign=bottom;labelBackgroundColor=none;endArrow=open;endFill=0;dashed=1;entryX=0;entryY=0.5;entryDx=0;entryDy=0;exitX=1;exitY=1;exitDx=0;exitDy=0;exitPerimeter=0;" edge="1" parent="1" source="Giucm0nm3MPma1HTVCax-37" target="Giucm0nm3MPma1HTVCax-44">
          <mxGeometry width="160" relative="1" as="geometry">
            <mxPoint x="138" y="736" as="sourcePoint" />
            <mxPoint x="260.27" y="507.2199999999998" as="targetPoint" />
          </mxGeometry>
        </mxCell>
        <mxCell id="Giucm0nm3MPma1HTVCax-58" value="&amp;lt;&amp;lt;include&amp;gt;&amp;gt;" style="html=1;verticalAlign=bottom;labelBackgroundColor=none;endArrow=open;endFill=0;dashed=1;entryX=0;entryY=1;entryDx=0;entryDy=0;exitX=0.75;exitY=0.1;exitDx=0;exitDy=0;exitPerimeter=0;" edge="1" parent="1" source="Giucm0nm3MPma1HTVCax-37" target="Giucm0nm3MPma1HTVCax-39">
          <mxGeometry width="160" relative="1" as="geometry">
            <mxPoint x="148" y="746" as="sourcePoint" />
            <mxPoint x="270.27" y="517.2199999999998" as="targetPoint" />
          </mxGeometry>
        </mxCell>
        <mxCell id="Giucm0nm3MPma1HTVCax-59" value="Extends" style="endArrow=block;endSize=16;endFill=0;html=1;exitX=0;exitY=1;exitDx=0;exitDy=0;" edge="1" parent="1" source="Giucm0nm3MPma1HTVCax-45" target="Giucm0nm3MPma1HTVCax-39">
          <mxGeometry width="160" relative="1" as="geometry">
            <mxPoint x="420.0699867139822" y="521.9467998351865" as="sourcePoint" />
            <mxPoint x="317.02695377484224" y="477.9794454651733" as="targetPoint" />
          </mxGeometry>
        </mxCell>
        <mxCell id="Giucm0nm3MPma1HTVCax-60" value="&amp;lt;&amp;lt;include&amp;gt;&amp;gt;" style="html=1;verticalAlign=bottom;labelBackgroundColor=none;endArrow=open;endFill=0;dashed=1;entryX=0;entryY=1;entryDx=0;entryDy=0;" edge="1" parent="1" target="Giucm0nm3MPma1HTVCax-38">
          <mxGeometry width="160" relative="1" as="geometry">
            <mxPoint x="105.5" y="700" as="sourcePoint" />
            <mxPoint x="236.0549393983158" y="691.3144580394332" as="targetPoint" />
          </mxGeometry>
        </mxCell>
        <mxCell id="Giucm0nm3MPma1HTVCax-61" value="Extends" style="endArrow=block;endSize=16;endFill=0;html=1;entryX=1;entryY=0.667;entryDx=0;entryDy=0;entryPerimeter=0;" edge="1" parent="1" source="Giucm0nm3MPma1HTVCax-47" target="Giucm0nm3MPma1HTVCax-41">
          <mxGeometry width="160" relative="1" as="geometry">
            <mxPoint x="425.0549393983199" y="561.314458039431" as="sourcePoint" />
            <mxPoint x="305.5" y="673" as="targetPoint" />
          </mxGeometry>
        </mxCell>
        <mxCell id="Giucm0nm3MPma1HTVCax-62" value="Extends" style="endArrow=block;endSize=16;endFill=0;html=1;" edge="1" parent="1" source="Giucm0nm3MPma1HTVCax-23" target="Giucm0nm3MPma1HTVCax-18">
          <mxGeometry width="160" relative="1" as="geometry">
            <mxPoint x="1017.3130558969335" y="159.5116075074343" as="sourcePoint" />
            <mxPoint x="930" y="140.01999999999998" as="targetPoint" />
          </mxGeometry>
        </mxCell>
        <mxCell id="Giucm0nm3MPma1HTVCax-65" value="&amp;lt;&amp;lt;include&amp;gt;&amp;gt;" style="html=1;verticalAlign=bottom;labelBackgroundColor=none;endArrow=open;endFill=0;dashed=1;entryX=0;entryY=0;entryDx=0;entryDy=0;exitX=1;exitY=1;exitDx=0;exitDy=0;exitPerimeter=0;" edge="1" parent="1" source="-ip3mRISZE-mA6Em4dH5-3" target="Giucm0nm3MPma1HTVCax-22">
          <mxGeometry width="160" relative="1" as="geometry">
            <mxPoint x="720" y="220" as="sourcePoint" />
            <mxPoint x="825" y="340" as="targetPoint" />
          </mxGeometry>
        </mxCell>
        <mxCell id="Giucm0nm3MPma1HTVCax-66" value="Extends" style="endArrow=block;endSize=16;endFill=0;html=1;entryX=1;entryY=0.5;entryDx=0;entryDy=0;" edge="1" parent="1" source="Giucm0nm3MPma1HTVCax-49" target="Giucm0nm3MPma1HTVCax-44">
          <mxGeometry width="160" relative="1" as="geometry">
            <mxPoint x="412.8130558969333" y="699.5116075074347" as="sourcePoint" />
            <mxPoint x="325.5" y="680.02" as="targetPoint" />
          </mxGeometry>
        </mxCell>
        <mxCell id="Giucm0nm3MPma1HTVCax-69" value="&amp;lt;&amp;lt;include&amp;gt;&amp;gt;" style="html=1;verticalAlign=bottom;labelBackgroundColor=none;endArrow=open;endFill=0;dashed=1;exitX=1;exitY=0.5;exitDx=0;exitDy=0;" edge="1" parent="1" source="-ip3mRISZE-mA6Em4dH5-13" target="-ip3mRISZE-mA6Em4dH5-24">
          <mxGeometry width="160" relative="1" as="geometry">
            <mxPoint x="130" y="80" as="sourcePoint" />
            <mxPoint x="260" y="80" as="targetPoint" />
          </mxGeometry>
        </mxCell>
        <mxCell id="Giucm0nm3MPma1HTVCax-71" value="&amp;lt;&amp;lt;include&amp;gt;&amp;gt;" style="html=1;verticalAlign=bottom;labelBackgroundColor=none;endArrow=open;endFill=0;dashed=1;" edge="1" parent="1" source="-ip3mRISZE-mA6Em4dH5-41">
          <mxGeometry width="160" relative="1" as="geometry">
            <mxPoint x="130" y="106.50603321102994" as="sourcePoint" />
            <mxPoint x="400" y="314" as="targetPoint" />
          </mxGeometry>
        </mxCell>
        <mxCell id="Giucm0nm3MPma1HTVCax-72" value="&amp;lt;&amp;lt;include&amp;gt;&amp;gt;" style="html=1;verticalAlign=bottom;labelBackgroundColor=none;endArrow=open;endFill=0;dashed=1;entryX=0.029;entryY=0.66;entryDx=0;entryDy=0;entryPerimeter=0;exitX=1;exitY=1;exitDx=0;exitDy=0;" edge="1" parent="1" source="Giucm0nm3MPma1HTVCax-12" target="Giucm0nm3MPma1HTVCax-20">
          <mxGeometry width="160" relative="1" as="geometry">
            <mxPoint x="720" y="170" as="sourcePoint" />
            <mxPoint x="840.5549393983158" y="81.31445803943325" as="targetPoint" />
          </mxGeometry>
        </mxCell>
      </root>
    </mxGraphModel>
  </diagram>
</mxfile>
